PathFileType	4	(X/Y/Z)	C:/Users/opensim2020/Desktop/walking_exp_matlab/subject01_walking12_straight_02.trc	
DataRate	CameraRate	NumFrames	NumMarkers	Units	OrigDataRate	OrigDataStartFrame	OrigNumFrames	
100.00	100.00	4	44	mm	100.00	1338	122	
Frame#	Time	LFHD			RFHD			LBHD			RBHD			C7			T10			CLAV			STRN			RBAK			LSHO			LUPA			LELB			LFRM			LWRA			LWRB			LFIN			RSHO			RUPA			RELB			RFRM			RWRA			RWRB			RFIN			LASI			RASI			LPSI			RPSI			LTHI			LKNE			LTIB			LANK			LHEE			LTOE			RTHI			RKNE			RTIB			RANK			RHEE			RTOE			*39			*40			*41			*42			*43			
		X1	Y1	Z1	X2	Y2	Z2	X3	Y3	Z3	X4	Y4	Z4	X5	Y5	Z5	X6	Y6	Z6	X7	Y7	Z7	X8	Y8	Z8	X9	Y9	Z9	X10	Y10	Z10	X11	Y11	Z11	X12	Y12	Z12	X13	Y13	Z13	X14	Y14	Z14	X15	Y15	Z15	X16	Y16	Z16	X17	Y17	Z17	X18	Y18	Z18	X19	Y19	Z19	X20	Y20	Z20	X21	Y21	Z21	X22	Y22	Z22	X23	Y23	Z23	X24	Y24	Z24	X25	Y25	Z25	X26	Y26	Z26	X27	Y27	Z27	X28	Y28	Z28	X29	Y29	Z29	X30	Y30	Z30	X31	Y31	Z31	X32	Y32	Z32	X33	Y33	Z33	X34	Y34	Z34	X35	Y35	Z35	X36	Y36	Z36	X37	Y37	Z37	X38	Y38	Z38	X39	Y39	Z39	X40	Y40	Z40	X41	Y41	Z41	X42	Y42	Z42	X43	Y43	Z43	X44	Y44	Z44	

92	0.910	1521.60144	-142.18217	1652.59570	1409.43127	-159.82104	1656.71716	1509.88342	-24.04067	1614.62805	1389.97473	-39.51601	1618.20337	1461.48193	21.37745	1418.58337	1451.71582	54.81710	1123.31177	1469.16553	-121.24887	1349.32446	1473.99951	-166.46951	1196.60986	1375.63904	71.09086	1224.55615	1628.05811	-51.10409	1377.21301	1702.07666	10.78358	1195.90967	1688.50305	44.05079	1050.13550	1707.95740	33.81897	936.30237	1683.36853	-14.67523	804.83569	1706.50391	41.54620	813.85699	1704.44946	19.21227	729.30981	1313.96509	-67.15020	1380.89758	1199.50403	-30.93656	1184.17395	1186.70715	-48.88202	1057.64648	1171.22144	-134.96425	966.48572	1213.19421	-259.63730	911.72009	1169.22180	-229.72440	888.74432	1180.32166	-302.72052	847.60809	1555.50525	-133.84000	921.12811	1337.79333	-116.91640	918.53882	1521.78198	56.05552	929.28668	1379.15881	65.56032	938.96014	1630.29810	-182.74715	610.24524	1612.64294	-219.57388	482.90915	1630.29675	-235.39104	297.73831	1588.00415	-301.47778	80.35420	1530.93347	-274.76010	34.94736	1593.91931	-448.69458	96.49039	1294.33142	10.22101	597.44409	1322.57837	44.49876	439.77579	1321.40662	154.68446	300.59253	1371.81616	252.94614	117.56638	1420.77673	312.38593	102.22254	1379.78577	136.66531	34.62892	1431.26807	-148.93416	1690.85706	-3101.96948	1972.95154	1023.77148	-3140.67749	2012.50024	1022.01794						 
93	0.920	1523.60706	-154.70000	1651.35046	1411.35339	-172.08908	1655.53308	1512.25818	-36.51615	1613.44714	1392.22034	-51.75647	1617.04236	1463.70911	8.96464	1417.16272	1453.34827	41.61091	1121.77454	1471.05676	-133.82396	1348.14233	1475.49146	-179.47809	1195.58008	1377.65967	58.39534	1223.12549	1630.09717	-63.76616	1375.61731	1703.96533	-1.91321	1194.24805	1690.00159	31.64956	1048.62231	1709.28552	21.90172	934.77228	1684.21521	-26.04791	803.10498	1707.62366	30.03613	812.29010	1705.05188	8.15177	727.52667	1315.74475	-79.61897	1380.24951	1201.38818	-42.83763	1183.40393	1188.17297	-60.77640	1056.92358	1172.81763	-147.46364	966.30524	1215.07678	-272.62695	912.65546	1171.10010	-242.90639	889.40350	1182.27161	-316.26492	848.91205	1556.33643	-147.94859	920.02448	1338.53467	-130.10248	917.51160	1523.74585	42.05915	927.94733	1381.29309	52.22620	937.60040	1629.82629	-198.48517	609.55469	1612.02551	-234.19867	481.90384	1629.52820	-248.37376	295.95554	1586.59961	-313.22659	78.39136	1529.76050	-285.86655	33.10539	1590.93555	-460.67484	93.65392	1294.64172	-1.80384	596.91455	1322.36743	33.52163	439.03925	1321.28821	147.41055	302.23590	1370.79797	249.44304	121.38342	1419.80518	309.27893	107.96336	1379.57300	136.20610	34.68214	1433.31006	-161.27148	1689.70801	-3101.98340	1973.14368	1023.49255	-3140.80371	2012.50623	1022.12189						 
94	0.930	1525.58997	-167.27554	1650.09583	1413.35474	-184.34485	1654.35132	1514.60107	-49.03234	1612.23889	1394.56421	-63.89792	1615.90125	1466.00903	-3.56055	1415.67249	1455.13000	28.21357	1120.22534	1473.13757	-146.65158	1347.12964	1477.11108	-192.63811	1194.61890	1379.82556	45.63541	1221.63379	1632.28125	-76.53732	1374.05115	1705.84827	-14.74265	1192.51294	1691.64685	19.03623	1047.02441	1710.67651	9.37231	933.10889	1685.20569	-38.04577	801.38153	1708.67847	17.91337	810.64459	1705.95898	-3.59849	725.83380	1317.93750	-92.01242	1378.81482	1203.44885	-54.68591	1182.62756	1189.72314	-72.55559	1056.20227	1174.50916	-159.83900	965.95850	1216.90979	-285.17697	913.07031	1172.90662	-255.76048	889.53119	1184.20764	-329.30167	849.66925	1557.50244	-162.27263	919.01520	1339.35510	-143.94115	916.52820	1525.63806	28.00701	926.57941	1383.34265	38.53547	936.21216	1629.23303	-214.73843	608.81641	1611.07605	-249.08411	480.85217	1628.44690	-260.44742	293.87894	1584.95654	-322.58240	75.80753	1528.59302	-294.03549	31.10951	1587.58923	-470.30191	89.24834	1295.08264	-14.29574	596.23340	1322.03027	22.10395	438.23102	1320.66528	139.12616	304.17868	1369.81543	245.58131	125.54322	1418.76147	305.54254	114.02811	1379.36975	135.66534	34.70472	1435.38599	-173.46318	1688.37549	-3101.93555	1973.10254	1023.54199	-3140.55469	2012.53625	1022.04169						 
95	0.940	1527.71240	-179.83405	1648.79712	1415.38196	-196.51944	1653.07849	1517.06348	-61.56459	1610.95886	1396.96021	-76.03790	1614.66577	1468.40417	-16.15206	1414.06067	1456.89380	14.59842	1118.56641	1475.24902	-159.47905	1346.02783	1478.84534	-206.03548	1193.68262	1381.99329	32.70868	1220.02551	1634.49170	-89.46886	1372.44580	1707.86365	-27.75620	1190.80139	1693.45837	6.16286	1045.37610	1712.32373	-3.35958	931.51617	1686.42664	-50.56462	799.68298	1710.25903	5.26106	809.03778	1707.04529	-16.18175	724.11249	1320.04431	-104.54744	1377.61829	1205.53235	-66.37035	1181.82739	1191.31580	-84.27329	1055.47375	1176.18616	-171.84344	965.51532	1218.79224	-297.29645	913.13910	1174.71008	-268.06836	889.45587	1186.22400	-341.88434	849.99103	1558.90125	-176.81976	918.09943	1340.62036	-157.83035	915.29346	1527.39014	13.63371	925.14392	1385.23633	24.52875	934.82367	1628.22717	-231.13052	608.04688	1609.75916	-263.85794	479.49072	1627.16895	-271.78528	291.36511	1583.07190	-330.09918	72.69216	1527.88367	-299.09250	30.44542	1584.00061	-477.69760	83.50074	1295.62012	-27.33764	595.34766	1321.72290	9.56681	437.12311	1320.49817	130.05635	306.55960	1368.81445	241.46304	130.17126	1417.79224	301.17294	120.59490	1379.22852	135.11163	34.80647	1437.43347	-185.81526	1687.21179	-3101.93994	1973.22009	1023.52747	-3140.73926	2012.53870	1022.10114						 
